<?xml version="1.0" encoding="UTF-8"?>
<svg id="Capa_1" data-name="Capa 1" xmlns="http://www.w3.org/2000/svg" viewBox="0 0 851 315">
  <defs>
    <style>
      .cls-1 {
        fill: #fefefe;
      }

      .cls-2 {
        fill: #a21a2f;
      }
    </style>
  </defs>
  <g>
    <polygon class="cls-2" points="200.78 152.19 218.14 152.19 220.29 144.28 203.29 144.28 200.78 152.19"/>
    <polygon class="cls-2" points="192.05 180.75 209.41 180.75 211.56 172.84 194.56 172.84 192.05 180.75"/>
    <polygon class="cls-2" points="323.94 172.82 292.82 180.74 636.8 180.75 636.8 180.75 651.76 180.75 654.26 172.84 638.01 172.84 323.94 172.82"/>
    <polygon class="cls-2" points="643.69 144.28 241.48 144.28 239.81 152.19 642.48 152.19 642.48 152.19 657.43 152.19 659.94 144.28 643.69 144.28"/>
  </g>
  <path class="cls-1" d="M506.23,154.54l-23.35,76.78-20.85.16c-1.83.01-3.77.31-6.32-.35l13.59-46.47,8.93-30.12s.4,0,2.61,0l22.28-.03c1.41,0,3.1.03,3.1.03Z"/>
  <path class="cls-1" d="M423.79,178.02l75.26-79.96,23.66-.19-.89,4.15-12.51,40.93h-18.39c-1.07,0-9.25,0-9.25,0l.9-3.04-3.77,4.91-6.18,7.07-19.62,20.91-7.14,7.87-32.63,34.6-5.38-.08-24.39-71.24-9.63,26.99-17.83.06-6.36-.16,4-13.65,1.51-4.72,2.18-7.35,14.2-47.16,24.03.15,28.24,79.92Z"/>
  <path class="cls-1" d="M337.08,231.52c-1.57,0-3.24.36-5.47-.51l13.34-46.46c3.16-3.53,14.73-.65,25.29-1.8l-14.69,48.72-18.47.05Z"/>
  <g>
    <path class="cls-1" d="M649.02,104.81c1.74,6.04,1.39,12.35-.45,18.67l-5.51,18.84-25.82-.43,4.58-15.76,1.17-3.92-69.47.06-6.7,22.66-1.95,7.35-5.93,18.65-19.94.06-6.17-.14,4.26-14.17,1.1-4.39c.62-2.48,1.52-4.79,2.3-7.21,6.33-19.56,10.63-46.55,34.93-46.57l80.04-.07c5.56,0,10.68,2.74,13.56,6.36Z"/>
    <path class="cls-1" d="M535.39,182.76l-6.97,23.21,6.9.3,62.5-.05,6.15-21.9,26.3.05-.62,3.59-6.32,19.3c-5.14,15.68-14.46,24.02-31.38,24.07l-66.9.2c-5.76.02-13.15-.05-16.04-1.5-11.36-4.76-5.12-31.4-.24-47.27.06,0,26.61,0,26.61,0Z"/>
  </g>
  <path class="cls-1" d="M347.48,120.48l-6.62,22.47-18.85.05-6.33-.15,3.93-13.27c.22-.76,1.08-3.94.08-5.74s-3.85-2.22-5.35-2.22l-61.78-.13-6.9,23.51c-.69,2.33-3.76,13.07-3.7,12.97s63.77,0,63.77,0c3.04,0,4.53-3.4,4.53-3.4h25.81c.49,0,.97,0,.97,0,0,0-.88,3.28-.95,3.51-1.67,5.32-4.39,10.61-8.21,14.77s-9.04,6.05-14.09,7.87c-7.38,0-14.49.86-23.54.65l35.44,49.87-36.95.26-2.32-3.78-25.24-42.21c-.45-.66-.96-3.98-2.47-3.99l-24.14-.19-15.04,50.18h-25.63s13.75-46.28,13.75-46.28l1.49-4.75,2.2-7.35,4.8-16.48c.41-1.41,17.78-58.64,17.78-58.64l97.98.09c3.34,0,10.81,2.26,14.12,7.26s2.3,12.38,1.48,15.14Z"/>
</svg>